<svg xmlns="http://www.w3.org/2000/svg"><defs><style>.icon { display: none; }.icon:target { display: inline; }</style></defs>

<symbol viewBox="0 0 192.756 192.756"><g id="gucci" class="icon">
<g fill-rule="evenodd" clip-rule="evenodd">
<path fill="#ffffff" d="M0 0h192.756v192.756H0V0z"/>
<path d="M170.855 84.725h5.643c-.625.485-1 1.079-1 1.892v19.431c0 .812.391 1.391 1 1.875h-5.643c.609-.484.984-1.078.984-1.875V86.616c.001-.813-.359-1.407-.984-1.891zM40.065 93.072c-.922-1.985-1.938-3.939-3.642-5.361-1.813-1.532-4.112-2.454-6.488-2.454-6.315 0-9.145 5.705-9.145 11.317 0 5.425 2.705 10.911 8.801 10.911 2.485 0 4.909-1.078 6.44-3.033v-4.377c0-1.188-.391-1.953-1.313-2.656h6.456c-.688.781-1.109 1.578-1.109 2.656v4.377c-2.955 2.752-6.628 4.439-10.708 4.439-7.206 0-13.1-5.299-13.1-12.677 0-7.331 5.815-12.349 12.928-12.349 4.424 0 8.003 1.626 10.88 4.893v4.314zM55.884 84.725h6.081c-.829.609-1.11 1.297-1.11 2.313v14.179c0 3.891 4.564 5.799 7.91 5.799 3.283 0 7.566-1.922 7.566-5.721V87.038c0-.954-.235-1.61-.875-2.313h3.314c-.672.688-.922 1.375-.922 2.313v14.257c0 5.127-6.049 7.096-10.239 7.096-4.314 0-10.614-1.906-10.614-7.174V87.038c-.001-.969-.392-1.688-1.111-2.313zM116.785 93.15c-.812-2.048-1.766-3.845-3.439-5.33-1.797-1.595-3.986-2.595-6.408-2.595-6.252 0-9.457 5.471-9.457 11.146 0 5.705 3.33 11.098 9.504 11.098 4.596 0 7.879-3.236 9.801-7.129v4.221c-2.859 2.83-6.549 4.268-10.582 4.268-7.473 0-13.069-4.83-13.069-12.536 0-7.487 5.377-12.411 12.709-12.411 4.064 0 8.002 1.407 10.941 4.205v5.063zM155.99 93.15c-.812-2.048-1.768-3.845-3.439-5.33-1.797-1.595-3.986-2.595-6.408-2.595-6.254 0-9.443 5.471-9.443 11.146 0 5.705 3.314 11.098 9.49 11.098 4.596 0 7.893-3.236 9.801-7.129v4.221c-2.861 2.83-6.535 4.268-10.582 4.268-7.473 0-13.068-4.83-13.068-12.536 0-7.487 5.377-12.411 12.707-12.411 4.064 0 8.004 1.407 10.943 4.205v5.063h-.001z"/>
</g></g></symbol>

<symbol viewBox="0 0 240 180.04"><g id="under-armour" class="icon"><path d="M238.553 22.362s-6.882-5.327-29.168-13.512C189.83 1.653 174.893 0 174.893 0l.074 42.679c0 18.039-20.385 37.194-55.199 37.194h-.996c-34.81 0-55.188-19.155-55.188-37.194L63.652 0S48.729 1.652 29.166 8.85C6.881 17.035 0 22.362 0 22.362c1.652 34.229 54.826 62.43 119.263 62.445h.015c64.441-.015 117.628-28.216 119.275-62.445"/><path d="M238.582 118.203s-6.881 5.312-29.167 13.504c-19.569 7.198-34.493 8.843-34.493 8.843l.075-42.672c0-18.035-20.386-37.183-55.199-37.183l-.49-.015h-.015l-.483.015c-34.817 0-55.195 19.148-55.195 37.183l.076 42.672s-14.931-1.645-34.493-8.843C6.919 123.515.024 118.203.024 118.203c1.652-34.226 54.84-62.427 119.285-62.449 64.44.022 117.629 28.223 119.273 62.449M11.611 179.946c-5.432 0-5.53-4.135-5.53-5.733v-7.528c0-.469-.03-1.072.936-1.072h2.799c.92 0 .868.635.868 1.072v7.528c0 .543.091 1.978 2.067 1.978h4.708c1.939 0 2.052-1.435 2.052-1.978v-7.528c0-.438-.062-1.072.853-1.072H23.2c1.02 0 .928.635.928 1.072v7.528c0 1.601-.106 5.733-5.545 5.733M37.632 179.026c-1.916-2.58-4.655-5.824-7.446-9.266v9.174c0 .407.098 1.012-.86 1.012h-2.618c-.943 0-.837-.604-.837-1.012v-12.268c0-.422-.038-1.057.837-1.057h5.107c1.441 0 3.501 2.897 4.844 4.828 1.049 1.449 2.965 3.651 4.255 5.312v-9.084c0-.422-.053-1.057.898-1.057h2.844c.905 0 .854.635.854 1.057v13.277h-5.243c-1.126.004-1.609.08-2.635-.916M47.244 179.946v-14.319h12.652c.77 0 5.968-.104 5.968 5.356 0 5.568.596 8.963-5.862 8.963h-6.82l-1.471-2.987v2.987m7.513-3.772c2.301 0 2.127-2.202 2.127-3.214 0-3.38-.951-3.518-2.467-3.518h-7.22v6.73l7.56.002zM70.813 165.718h11.664c.981 0 .853.646.853 1.84 0 1.116.151 1.75-.853 1.75h-9.219c-.242 0-1.086-.119-1.086.74 0 .875-.159 1.223.762 1.223h8.148l1.313 2.609c.188.362.166.68-.551.68h-8.436l-1.305-2.551v3.758c0 .875.777.709 1.003.709h9.574c.951 0 .868.664.868 1.75 0 1.162.083 1.812-.868 1.812H70.563c-1.011 0-2.98-.315-2.98-3.472v-7.891c0-.83.43-2.957 3.23-2.957M86.475 165.626h12.758c1.712 0 4.202-.016 4.202 4.604 0 3.018-.641 3.168-2.015 4.104 2.301.393 1.992 3.334 1.992 4.857 0 .771-.279.754-.506.754h-3.742c-.785 0-.596-1.236-.596-1.885 0-1.75-.981-1.676-1.366-1.676h-5.507c-.528-.921-1.554-2.973-1.554-2.973v5.945l-.702.588h-3.765l-.377-.469v-12.613c.001-.888.627-1.236 1.178-1.236m10.162 3.788h-5.681c-.951 0-.905.315-.905.604v2.563h5.847c2.837 0 2.837-.709 2.837-1.448-.001-1.478-.121-1.719-2.098-1.719M125.404 165.718c.936 0 1.848.422 2.832 2.338.664 1.373 5.297 9.748 6.277 11.498v.482h-4.828l-1.39-2.52h-5.872l-1.27-2.883c-.361.588-2.3 4.27-2.964 5.401h-4.843v-.315c.988-1.857 7.733-14.004 7.733-14.004m2.817 3.972l-2.369 4.299.219.213h4.391l.219-.213-2.24-4.314-.22.015M137.576 165.626h12.766c1.705 0 4.195-.016 4.195 4.604 0 3.018-.635 3.168-2.008 4.104 2.311.393 1.992 3.334 1.992 4.857 0 .771-.287.754-.514.754h-3.742c-.783 0-.588-1.236-.588-1.885 0-1.75-.98-1.676-1.357-1.676h-5.521c-.529-.921-1.557-2.973-1.557-2.973v5.945l-.691.588h-3.773l-.377-.469v-12.613c-.001-.888.632-1.236 1.175-1.236m10.171 3.788h-5.688c-.951 0-.904.315-.904.604v2.563h5.854c2.821 0 2.821-.709 2.821-1.448-.001-1.478-.105-1.719-2.083-1.719M165.688 179.946c-.949-1.78-3.59-6.699-5.371-9.928v8.933c0 .377.061.995-.859.995h-2.58c-.966 0-.891-.618-.891-.995v-12.269c0-.438-.061-1.057.891-1.057h4.467c.664 0 1.613-.15 2.67 1.977.801 1.705 2.489 5.252 3.668 7.123 1.176-1.871 2.912-5.418 3.711-7.123 1.041-2.127 1.961-1.977 2.717-1.977h4.451c.904 0 .799.619.799 1.057v12.269c0 .377.137.995-.799.995h-2.611c-.95 0-.875-.618-.875-.995v-8.933c-1.811 3.229-4.422 8.146-5.416 9.928M185.092 179.976c-4.225 0-4.043-4.525-4.043-7.482 0-2.688-.303-6.896 4.993-6.941h9.416c5.312 0 4.964 4.271 4.964 6.941 0 2.957.213 7.482-4.089 7.482m-2.731-3.682c2.144 0 2.067-2.218 2.067-3.695 0-1.344.317-3.427-2.476-3.427h-4.736c-2.775 0-2.445 2.083-2.445 3.427 0 1.479-.136 3.695 2.008 3.695h5.582zM207.499 179.946c-5.417 0-5.522-4.135-5.522-5.733v-7.528c0-.469-.029-1.072.937-1.072h2.808c.92 0 .858.635.858 1.072v7.528c0 .543.091 1.978 2.067 1.978h4.707c1.947 0 2.053-1.435 2.053-1.978v-7.528c0-.438-.045-1.072.859-1.072h2.821c1.026 0 .937.635.937 1.072v7.528c0 1.601-.092 5.733-5.553 5.733M223.04 165.626h12.767c1.705 0 4.193-.016 4.193 4.604 0 3.018-.648 3.168-2.021 4.104 2.31.393 2.008 3.334 2.008 4.857 0 .771-.287.754-.514.754h-3.742c-.77 0-.588-1.236-.588-1.885 0-1.75-.996-1.676-1.373-1.676h-5.508c-.527-.921-1.555-2.973-1.555-2.973v5.945l-.709.588h-3.758l-.377-.469v-12.613c0-.888.634-1.236 1.177-1.236m10.155 3.788h-5.674c-.951 0-.906.315-.906.604v2.563h5.855c2.821 0 2.821-.709 2.821-1.448.002-1.478-.119-1.719-2.096-1.719"/></g></symbol>


<symbol viewBox="0 0 192.756 192.756"><g id="puma" class="icon">
<g fill-rule="evenodd" clip-rule="evenodd">
<path fill="#ffffff" d="M0 0h192.756v192.756H0V0z"/>
<path stroke="#000000" stroke-width=".216" stroke-miterlimit="2.613" d="M2.871 41.568h187.014v109.62H2.871V41.568z"/>
<path d="M42.74 95.865H25.601c-1.269 0-1.269 0-1.269.928v34.546c-.024-.024-.024 0-.049.025v.024c.025.195.245.756.977.756h8.301c.806 0 .806 0 .806-.732v-6.958c0-.951 0-1.099.928-1.099H42.741c3.955-.17 4.932-1.099 4.932-5.591v-17.236c-.002-3.833-.978-4.663-4.933-4.663zm-5.103 21.436c-.049 1.074-.854 1.611-1.636 1.611-.83 0-1.636-.562-1.636-1.709v-15.747c0-1.074.806-1.636 1.636-1.636s1.636.562 1.636 1.709v15.772zM74.698 96.695c0-.83-.171-.562-.928-.83h-8.203c-.903 0-.903 0-.903.83l-.024 28.59c0 2.807-3.174 2.734-3.174 0v-28.59c0-.83 0-.83-.83-.83h-8.569c-1.001 0-1.001 0-1.001.83v30.249c0 4.468 1.001 5.2 3.735 5.2H70.67c3.101 0 4.126-.83 4.028-4.932V96.695zM110.441 95.865H82.168c-3.369 0-4.37.83-4.37 4.126v31.421c0 .732 0 .732 1.001.732h7.935c1.099 0 1.099 0 1.099-.732v-29.59c0-2.588 3.173-2.856 3.173 0v29.59c0 .732 0 .732 1.197.732h7.91c.928 0 .928 0 .928-.732v-29.59c0-2.441 3.174-2.588 3.174 0v29.59c0 .732 0 .732 1 .732h8.131c.902 0 .902 0 .902-.732V99.796c0-3.101-1-3.931-3.807-3.931zM137.881 95.865h-16.039c-2.662 0-3.76.83-3.76 3.955v31.592c0 .732 0 .732 1.098.732h7.936c1.002 0 1.002 0 1.002-.732v-7.055c.098-1.1.83-1.661 1.586-1.686.807-.024 1.611.562 1.611 1.782v6.958c0 .732 0 .732 1.002.732h8.227c.807 0 .807 0 .807-.732V99.796c-.001-3.101-.831-3.931-3.47-3.931zm-6.567 21.436c0 .977-.805 1.465-1.611 1.44-.781 0-1.586-.487-1.586-1.44v-15.479c0-1.074.805-1.587 1.586-1.587.807.024 1.611.562 1.611 1.587v15.479zM150.139 126.48h-.074c-2.367 0-4.32 1.953-4.32 4.371 0 2.367 1.953 4.321 4.32 4.321h.074a4.324 4.324 0 0 0 4.297-4.321 4.368 4.368 0 0 0-4.297-4.371zm3.418 4.738c-.27 1.83-1.709 3.052-3.418 3.076-.465 0-.928-.074-1.393-.244-1.439-.708-2.246-1.929-2.123-3.541.268-1.953 1.855-3.174 3.516-3.149.951 0 1.904.391 2.637 1.27.585.829.829 1.538.781 2.588z" fill="#ffffff"/>
<path d="M151.529 130.924c.318-.293.488-.684.488-1.146 0-.416-.195-.781-.586-1.051a2.313 2.313 0 0 0-1.293-.464h-1.881l-.023 5.2h.854l-.023-2.025h.658l.416.561 1.098 1.44h.83l-1.611-2.05c.366 0 .732-.196 1.073-.465zm-1.562-.147h-.879l-.023-1.953h.902c.074 0 .123.024.172.024.268.025.537.122.707.269.221.172.367.439.367.66 0 .292-.123.512-.367.707a1.216 1.216 0 0 1-.707.293h-.172zM177.408 58.951c-.756-1.221-2.393-.854-4.369.098-2.564 1.099-7.178 6.226-8.301 9.082-1.002 4.102-3.346 7.886-7.154 11.963-3.832 3.125-10.645 1.88-14.574-.61-.244 0-16.383-12.573-16.383-12.573-5.785-4.565-9.814-6.543-14.674-7.129-.244-.146-.463-.39-.535-.561-.758-1.685-.904-1.538-1.441-1.953-.635.488-1.1.757-1.734.952-.293 0-.342 0-.512-.098-.391-.171-.807-.513-1.221-.537-.488.098-.879 1.074-1.539 2.051 0 0-1.123.977-2.146 1.831-.393.342-.441.879-.709 1.196-.537.586-1.172 1.538-1.27 1.538-.244.684-.342 1.294.098 1.611 0 .757.391.952.537 1.123.121.244.146.342.316.513.293.122.537.171.832.244 1.561 1.44 2.195 1.416 4.002 1.172 3.125.22 2.857 1.27 2.783 2.856-.195.244-.244.22-.463.342-1.393 0-2.857-.317-4.248-.317-3.053.269-5.689.806-5.445 4.492.195 1.44 2.809 3.442 4.176.732.195-1.245 1.244-.684 2.148-.391 5.469 2.368 9.838 3.589 12.744 1.123.879-1.099 1.416-.317 2.32.342 4.395 5.225 10.693 8.618 20.385 8.74 3.223.806 5.689 2.148 6.91 5.322 3.002 7.69 6.811 13.892 12.402 17.139-.465 4.858-.27 8.887 4.639 9.938 1.293-1.051-.514-2.638.977-6.202-.123-1.587-1.49-2.881-1.953-5.908-5.713-4.688-3.297-6.616-4.15-9.741-.074-4.565-1.074-8.057-3.004-11.523-.219-.562.146-.977.66-1.27 3.223-2.417 4.98-4.785 5.762-7.08 1.195-4.077 3.223-7.275 6.104-9.57 2.441-1.953 4.76-2.563 7.396-4.297 1.636-2.687 1.392-3.419.634-4.64z" fill="#ffffff"/></g>
</g></symbol>

<symbol viewBox="0 0 2516 594.4"><g id="zara" class="icon"><path d="M508.9,501.4c0,39.3-32.8,71.2-57.5,71.2H172.1L523.4,11.4H53.7v93h24.1c0-39.3,25.4-71.1,50.2-71.1h241.3L15.9,594.4h509.6  l0-93H508.9"/><g><polygon points="918.3,576.1 918.3,576.1 918.3,576.1  "/><path d="M1118.4,549L846.6,11.4l-249.1,538c-4.4,11.8-28.4,26.7-62.4,26.7v18.2h132.6v-18.2c-24.6,0-51-12.2-44.6-26.8L683,419.4   h229.8L978.1,549c7.4,13.1-25.7,27.2-59.8,27.2v18.2h276l0.1-18.2C1152.6,576.1,1127.1,563.1,1118.4,549z M693,398.4l99.4-218.2   l111,218.2H693z"/></g><path d="M1226,33.9c40.4,0,73.8,10.4,73.8,23c0,100-0.2,491.5,0,491.5c0,13.4-32.9,28.3-73.4,28.3l-0.1,17.6h270.2v-16.4  c-40.1,0-72.6-16-72.6-29.4V29h77.9c75,0,135.8,62.3,135.8,133c0,70.7-60.8,128.1-135.9,128.1h-53.9c0,0,182.6,276.5,182.9,276.5  c7.2,10.5,10.8,27.8,10.8,27.8h196.9v-16.4c-37.9,0-57.7-15.7-68.7-29.5l-175.8-229.4c84.4-5.6,149.7-73.8,149.7-154.8  c0-84.6-72.7-152.9-162.4-152.9H1226V33.9"/><path d="M2440,549L2168.2,11.4l-249.1,538c-4.4,11.8-28.3,27.3-62.4,27.3v17.6h132.6v-16.4c-24.6,0-50.9-14-44.6-28.6l59.9-129.9  h229.8l65.3,129.6c7.5,13.1-25.7,27.8-59.8,27.8h0v17.6h276l0.1-17C2474.2,577.4,2448.7,563.1,2440,549z M2014.5,398.4l99.4-218.2  l111,218.2H2014.5z"/></g></symbol>

<symbol viewBox="0 0 449.328 512"><g id="levi" class="icon"><style type="text/css" xml:space="preserve">.st0 { fill: rgb(0, 0, 0); }</style><g><path class="st0" d="M417.631,0h-11.17h-150.46H94.371L62.671,505.676L220.451,512l35.549-282.251h0.016L291.549,512l157.779-6.315   L417.631,0z M276.995,205.958h-20.994h-10.489h-10.489l-35.449,281.396l-111.626-4.473L116.709,23.79h139.292h139.275   l28.778,459.091l-111.626,4.473L276.995,205.958z"/><polygon class="st0" points="169.484,38.544 129.173,38.544 127.895,72.052 169.484,72.052  "/><path class="st0" d="M128.857,101.145c0,9.169,0,48.735,0,53.73c0.033,3.56,1.41,6.331,2.988,8.729   c2.837,4.174,6.854,7.709,11.384,11.194c13.526,10.289,32.097,19.31,32.28,19.426l3.004,1.46l2.988-1.46   c0.116-0.066,10.97-5.377,22.073-12.389c5.56-3.526,11.169-7.444,15.7-11.592c2.257-2.091,4.266-4.232,5.892-6.639   c1.593-2.398,2.954-5.17,3.004-8.729c0-4.996,0-44.561,0-53.73v-6.796h-99.311V101.145z M142.449,107.941h72.127   c0,3.502,0,7.759,0,12.323h-72.127C142.449,115.7,142.449,111.443,142.449,107.941z M142.449,128.761h72.127   c0,11.783,0,23.193,0,25.956l-0.249,0.564c-0.714,1.502-3.601,4.663-7.485,7.692c-5.825,4.647-13.758,9.502-20.148,13.086   c-3.186,1.809-6.008,3.303-8.016,4.348c-0.066,0.034-0.099,0.05-0.166,0.084c-4.547-2.356-13.592-7.228-21.641-12.646   c-4.398-2.954-8.481-6.099-11.17-8.796c-1.327-1.336-2.307-2.564-2.805-3.402l-0.448-0.863v-0.042   C142.449,151.996,142.449,140.57,142.449,128.761z"/><rect x="184.455" y="38.544" class="st0" width="64.061" height="33.508"/><rect x="263.485" y="38.544" class="st0" width="64.062" height="33.508"/><path class="st0" d="M283.833,101.145c0,9.169,0,48.735,0,53.73c0.049,3.56,1.41,6.331,3.004,8.729   c2.838,4.174,6.854,7.709,11.384,11.194c13.526,10.289,32.098,19.31,32.296,19.426l2.988,1.46l2.987-1.46   c0.134-0.066,10.987-5.377,22.073-12.389c5.56-3.526,11.17-7.444,15.7-11.592c2.257-2.091,4.282-4.232,5.891-6.639   c1.593-2.398,2.954-5.17,3.004-8.729c0-4.996,0-44.561,0-53.73v-6.796h-99.328V101.145z M297.425,107.941h72.143   c0,3.502,0,7.759,0,12.323h-72.143C297.425,115.7,297.425,111.443,297.425,107.941z M297.425,128.761h72.143   c0,11.776,0,23.168,0,25.948l-0.249,0.573c-0.697,1.502-3.584,4.663-7.484,7.692c-5.826,4.647-13.759,9.502-20.148,13.086   c-3.186,1.809-6.008,3.303-8.016,4.348c-0.066,0.034-0.099,0.05-0.166,0.084c-4.548-2.356-13.592-7.228-21.642-12.646   c-4.398-2.954-8.48-6.099-11.168-8.796c-1.344-1.336-2.324-2.564-2.822-3.402l-0.432-0.863l-0.016-0.042   C297.425,151.996,297.425,140.57,297.425,128.761z"/><polygon class="st0" points="342.516,38.544 342.516,72.052 384.107,72.052 382.829,38.544  "/></g></g></symbol>

<symbol viewBox="0 0 12.996085 10.131915"><g id="nike" class="icon"><path d="m 1.7414517,9.9869992 c -0.35187,-0.1687 -0.65089,-0.4752 -0.71578,-0.7337 -0.0760999,-0.3034 0.0231,-0.8892 0.22683,-1.3384 0.1922,-0.4239 0.73357,-1.273 1.07388,-1.6844 l 0.16019,-0.1936 -0.1292,0.3695 c -0.17969,0.5139 -0.17252,1.0639 0.0175,1.3459 0.28427,0.4218 0.84807,0.6471 1.35703,0.5421 0.37495,-0.077 4.01189,-1.0646 4.14367,-1.1248 0.0919,-0.042 -0.0151,-0.06 -0.37112,-0.063 l -0.5002,0 -0.005,-0.3388 c -0.003,-0.1864 -0.0244,-0.4632 -0.0484,-0.6151 l -0.0436,-0.2761 -0.22267,0.615 -0.22268,0.615 -0.37434,0 c -0.20589,0 -0.37434,-0.025 -0.37434,-0.055 0,-0.03 0.20619,-0.6038 0.45821,-1.2747 0.25201,-0.6708 0.51549,-1.3722 0.58551,-1.5586 l 0.12732,-0.3388 0.38261,0 c 0.21044,0 0.38262,0.01 0.38262,0.02 0,0.011 -0.0724,0.2049 -0.16094,0.4307 -0.0885,0.2259 -0.15326,0.4184 -0.14387,0.4278 0.009,0.01 0.17621,-0.1834 0.37071,-0.4284 l 0.35363,-0.4455 1.1848,0 c 1.0579293,0 1.1805793,0.01 1.1453493,0.1005 -0.0217,0.057 -0.057,0.1727 -0.0784,0.2581 -0.036,0.1435 -0.0701,0.1554 -0.4428793,0.1554 l -0.40388,0 -0.12906,0.3389 -0.12906,0.3388 0.34631,0.019 c 0.19047,0.011 0.34631,0.048 0.34631,0.083 0,0.035 -0.0414,0.1626 -0.0921,0.2839 -0.088,0.2107 -0.10858,0.2213 -0.46435,0.2399 l -0.37223,0.02 -0.1488,0.3849 c -0.0819,0.2117 -0.14881,0.3933 -0.14881,0.4034 0,0.01 0.2024,0.018 0.44977,0.018 0.37328,0 0.44345,0.017 0.41262,0.097 -0.0204,0.053 -0.008,0.097 0.0281,0.097 0.0359,0 0.8135193,-0.2033 1.7280293,-0.4518 1.56793,-0.426 2.00125,-0.5135 1.50299,-0.3034 -0.1192,0.05 -2.13365,0.9197 -4.4765293,1.9321 -2.34289,1.0124 -4.47763,1.9198 -4.74387,2.0164 -0.31654,0.1148998 -0.66276,0.1859998 -1.00041,0.2053998 -0.44994,0.026 -0.55817,0.01 -0.84169,-0.1262998 z m 6.61127,-4.6535 c 0.25232,-0.6709 0.45742,-1.2372 0.45578,-1.2586 -0.002,-0.021 -0.24801,0.2226 -0.54749,0.542 l -0.54451,0.5809 -3.9e-4,0.5486 c -5.2e-4,0.6754 0.0612,1.115 0.13065,0.9315 0.026,-0.069 0.25366,-0.6736 0.50598,-1.3444 z m -5.60525,1.4325 c 0.0715,-0.188 0.34265,-0.9082 0.60255,-1.6004 l 0.47254,-1.2586 0.42149,-0.019 0.42149,-0.019 -0.0227,0.277 c -0.0545,0.6647 -0.0775,1.0839 -0.0595,1.0839 0.0107,0 0.13135,-0.3048 0.26819,-0.6773 l 0.2488,-0.6773 0.37112,-7e-4 c 0.20411,0 0.37111,0.024 0.37111,0.055 0,0.03 -0.20619,0.6039 -0.4582,1.2747 -0.25202,0.6709 -0.5155,1.3722 -0.58552,1.5586 l -0.12731,0.3389 -0.42185,0 -0.42185,0 0.0384,-0.6616 c 0.0211,-0.3639 0.024,-0.6325 0.007,-0.597 -0.0175,0.035 -0.12882,0.3259 -0.24727,0.6454 l -0.21537,0.5809 -0.39629,0.019 -0.39628,0.019 0.13,-0.3419 z m 2.06239,0.2809 c 0,-0.03 0.20619,-0.6039 0.4582,-1.2748 0.25202,-0.6708 0.5155,-1.3722 0.58552,-1.5585 l 0.12731,-0.3389 0.388,0 c 0.2134,0 0.37831,0.025 0.36648,0.056 -0.0118,0.031 -0.28291,0.7566 -0.6024,1.6129 l -0.58088,1.5568 -0.37112,6e-4 c -0.20411,7e-4 -0.37111,-0.024 -0.37111,-0.054 z"/></g></symbol>

<symbol viewBox="0 0 23.998665 20.052"><g id="adidas" class="icon"><path d="M11.936 17.952c0-.644.517-1.16 1.162-1.16.644 0 1.16.516 1.16 1.16a1.157 1.157 0 0 1-1.16 1.161 1.157 1.157 0 0 1-1.162-1.16m4.724 0c0-.645.517-1.162 1.161-1.162s1.161.517 1.161 1.161-.517 1.161-1.16 1.161a1.157 1.157 0 0 1-1.162-1.16m-10.95 0c0-.645.517-1.162 1.161-1.162s1.16.517 1.16 1.161-.516 1.161-1.16 1.161a1.157 1.157 0 0 1-1.161-1.16m-4.724 0c0-.645.517-1.162 1.161-1.162s1.161.517 1.161 1.161a1.157 1.157 0 0 1-1.161 1.161 1.157 1.157 0 0 1-1.16-1.16m9.55-2.052h-1.01v4.063h1.01v-4.063zM3.3 19.964h1.01v-4.063H3.3v.326a2.087 2.087 0 0 0-1.2-.374c-1.162 0-2.1.938-2.1 2.1 0 1.168.938 2.099 2.1 2.099.445 0 .858-.135 1.2-.374v.286zm15.674 0h1.01v-4.063h-1.01v.326a2.087 2.087 0 0 0-1.2-.374c-1.162 0-2.1.938-2.1 2.1a2.092 2.092 0 0 0 2.1 2.099c.445 0 .858-.135 1.2-.374v.286zm1.384-1.32c.032.82.732 1.4 1.9 1.4.955 0 1.742-.414 1.742-1.328 0-.636-.358-1.01-1.185-1.17l-.644-.126c-.414-.08-.7-.16-.7-.406 0-.27.278-.39.628-.39.51 0 .716.255.732.557h1.018c-.056-.795-.692-1.328-1.718-1.328-1.057 0-1.686.58-1.686 1.336 0 .922.748 1.073 1.392 1.193l.533.095c.382.072.549.183.549.406 0 .199-.191.397-.645.397-.66 0-.874-.342-.882-.636h-1.034zM8.024 14.517v1.71a2.087 2.087 0 0 0-1.2-.374c-1.162 0-2.1.938-2.1 2.1 0 1.168.938 2.099 2.1 2.099.444 0 .858-.135 1.2-.374v.286h1.01v-5.447h-1.01zm6.226 0v1.71a2.087 2.087 0 0 0-1.2-.374c-1.161 0-2.1.938-2.1 2.1a2.092 2.092 0 0 0 2.1 2.099c.445 0 .858-.135 1.2-.374v.286h1.01v-5.447h-1.01zm-11.626-1.2.684 1.2h4.716l-1.869-3.229-3.53 2.028zm7.913 2.21v-1.01h3.713l-3.96-6.855L6.751 9.69l2.776 4.827v1.01h1.01zm5.217-1.01h4.723L14.37 3.948l-3.531 2.036 4.915 8.533z"/></g></symbol></svg>